<?xml version="1.0" standalone="no"?>
<!DOCTYPE svg PUBLIC "-//W3C//DTD SVG 20010904//EN"
 "http://www.w3.org/TR/2001/REC-SVG-20010904/DTD/svg10.dtd">
<svg version="1.0" xmlns="http://www.w3.org/2000/svg"
 width="260.000000pt" height="260.000000pt" viewBox="0 0 260.000000 260.000000"
 preserveAspectRatio="xMidYMid meet">
<metadata>
Created by potrace 1.14, written by Peter Selinger 2001-2017
</metadata>
<g transform="translate(0.000000,260.000000) scale(0.100000,-0.100000)"
fill="#000000" stroke="none">
<path d="M333 2010 c-72 -6 -109 -29 -136 -83 -16 -32 -19 -67 -20 -270 -2
-256 -6 -275 -66 -300 -24 -11 -27 -17 -27 -57 1 -39 4 -47 28 -57 59 -25 64
-49 65 -297 2 -236 4 -254 35 -299 29 -41 70 -58 145 -58 72 -1 82 6 77 53 -5
39 -4 39 -54 42 -74 6 -74 6 -80 279 -6 266 -9 283 -65 313 l-33 18 46 42 47
42 5 251 c6 292 4 287 101 290 24 1 27 5 31 45 4 52 -1 54 -99 46z"/>
<path d="M2210 1968 c0 -45 2 -48 28 -49 15 -1 31 -1 35 0 18 3 49 -22 58 -47
6 -15 11 -116 11 -232 0 -113 4 -222 9 -242 6 -23 23 -48 47 -68 36 -30 36
-31 17 -46 -70 -51 -73 -66 -73 -324 0 -116 -5 -217 -11 -232 -13 -33 -36 -46
-81 -45 -34 2 -35 0 -41 -41 -3 -24 -2 -45 3 -48 14 -9 132 -6 158 4 32 13 65
49 81 87 8 20 12 109 13 261 2 254 6 272 64 297 24 11 27 18 27 57 0 39 -4 46
-28 58 -58 28 -61 43 -63 296 -1 153 -5 241 -13 261 -28 68 -75 95 -171 98
l-70 2 0 -47z"/>
<path d="M820 1796 c-3 -2 -18 -6 -35 -9 -53 -8 -124 -48 -174 -98 -81 -81
-123 -197 -120 -334 5 -188 78 -319 217 -387 63 -31 72 -33 177 -33 97 0 116
3 166 26 106 50 195 169 218 293 13 69 7 202 -12 266 -37 126 -134 227 -252
262 -34 10 -178 21 -185 14z m184 -146 c89 -43 145 -150 146 -281 0 -131 -44
-228 -130 -285 -54 -36 -168 -45 -236 -19 -104 39 -165 147 -167 290 -1 167
67 278 193 315 46 14 143 4 194 -20z"/>
<path d="M1444 1782 c-21 -3 -21 -3 -21 -420 l0 -418 56 2 c31 1 59 2 63 3 4
0 7 65 7 143 l1 142 62 63 c34 34 64 60 68 58 5 -3 160 -248 203 -320 7 -11
24 -36 39 -56 26 -34 29 -35 87 -35 33 1 63 4 66 7 3 4 -64 118 -150 254
l-156 248 23 25 c13 15 82 87 155 161 72 75 130 137 128 139 -2 2 -38 4 -80 4
l-77 0 -122 -128 c-68 -71 -151 -158 -185 -194 l-61 -65 -1 65 c0 36 0 122 1
193 1 70 -3 127 -7 128 -35 3 -82 3 -99 1z"/>
</g>
</svg>
