<svg width="100%" height="100%" viewBox="0 0 119 37" version="1.1" xmlns="http://www.w3.org/2000/svg" xmlns:xlink="http://www.w3.org/1999/xlink" xml:space="preserve" style="fill-rule:evenodd;clip-rule:evenodd;stroke-linejoin:round;stroke-miterlimit:2;">
    <path d="M102,5L2.5,5C1.12,5 0,3.88 0,2.5C-0,1.12 1.12,0 2.5,0L104.5,0C105.88,-0 107,1.12 107,2.5L107,27.856L112.732,22.124C113.708,21.148 115.292,21.148 116.268,22.124C117.243,23.1 117.243,24.684 116.268,25.659L106.268,35.659C105.792,36.135 105.157,36.391 104.5,36.391C103.843,36.391 103.208,36.135 102.732,35.659L92.732,25.659C91.757,24.684 91.757,23.1 92.732,22.124C93.708,21.148 95.292,21.148 96.268,22.124L102,27.856L102,5Z"/>
</svg>
